<?xml version="1.0" encoding="utf-8"?>
<!-- Generator: Adobe Illustrator 16.0.0, SVG Export Plug-In . SVG Version: 6.00 Build 0)  -->
<!DOCTYPE svg PUBLIC "-//W3C//DTD SVG 1.1//EN" "http://www.w3.org/Graphics/SVG/1.1/DTD/svg11.dtd">
<svg version="1.1" id="Layer_1" xmlns="http://www.w3.org/2000/svg" xmlns:xlink="http://www.w3.org/1999/xlink" x="0px" y="0px"
	 width="612px" height="792px" viewBox="0 0 612 792" enable-background="new 0 0 612 792" xml:space="preserve">
<g>
	<path d="M227.503,296.366V341h-10.132v-44.634H227.503z"/>
	<path d="M247.304,329.543L244.125,341h-10.463l13.642-44.634h13.245L274.39,341h-10.86l-3.444-11.457H247.304z M258.628,321.994
		l-2.781-9.47c-0.794-2.649-1.589-5.96-2.251-8.609h-0.133c-0.662,2.649-1.324,6.026-2.053,8.609l-2.649,9.47H258.628z"/>
	<path d="M280.353,296.366h10.132v36.158h17.748V341h-27.88V296.366z"/>
	<path d="M314.194,296.961c3.708-0.596,8.542-0.927,13.642-0.927c8.477,0,13.973,1.523,18.277,4.768
		c4.636,3.443,7.55,8.94,7.55,16.82c0,8.543-3.112,14.437-7.417,18.079c-4.702,3.907-11.854,5.761-20.596,5.761
		c-5.231,0-8.939-0.331-11.456-0.662V296.961z M324.326,333.384c0.861,0.199,2.252,0.199,3.51,0.199
		c9.139,0.066,15.099-4.967,15.099-15.628c0.066-9.271-5.364-14.172-14.039-14.172c-2.252,0-3.708,0.199-4.569,0.397V333.384z"/>
</g>
</svg>
